<svg width="554" height="424" viewBox="0 0 554 424" fill="none" xmlns="http://www.w3.org/2000/svg">
<mask id="path-1-outside-1_25_17" maskUnits="userSpaceOnUse" x="2" y="307" width="549" height="117" fill="black">
<rect fill="white" x="2" y="307" width="549" height="117"/>
<path d="M61.25 309.703C76.3542 309.703 89.2969 315.198 100.078 326.188C110.911 337.177 116.328 350.328 116.328 365.641C116.328 381.214 110.885 394.443 100 405.328C89.1146 416.214 75.8854 421.656 60.3125 421.656C44.8438 421.656 31.6406 416.188 20.7031 405.25C9.76562 394.312 4.29688 381.109 4.29688 365.641C4.29688 350.016 9.79167 336.786 20.7812 325.953C31.8229 315.12 45.3125 309.703 61.25 309.703ZM60.3125 341.109C53.8021 341.109 48.2552 343.505 43.6719 348.297C39.0885 353.089 36.7969 358.87 36.7969 365.641C36.7969 372.411 39.0885 378.193 43.6719 382.984C48.3073 387.776 53.8542 390.172 60.3125 390.172C66.875 390.172 72.4219 387.802 76.9531 383.062C81.5365 378.271 83.8281 372.464 83.8281 365.641C83.8281 358.818 81.5365 353.036 76.9531 348.297C72.4219 343.505 66.875 341.109 60.3125 341.109ZM166.016 382.125V354.156C172.422 354.156 175.625 351.708 175.625 346.812C175.625 342.333 173.177 340.094 168.281 340.094C163.333 340.094 160.859 343.167 160.859 349.312V419H129.141V352.594C129.141 345.719 129.818 340.094 131.172 335.719C132.578 331.292 134.948 327.177 138.281 323.375C142.031 319.156 146.719 315.823 152.344 313.375C157.969 310.927 163.776 309.703 169.766 309.703C180.599 309.703 189.688 313.349 197.031 320.641C204.427 327.932 208.125 336.969 208.125 347.75C208.125 358.219 204.818 366.708 198.203 373.219C192.161 379.208 183.047 382.203 170.859 382.203L166.016 382.125ZM271.406 311.891V342.281C269.115 341.5 267.344 341.109 266.094 341.109C263.698 341.109 261.641 341.995 259.922 343.766C258.203 345.536 257.344 347.672 257.344 350.172C257.344 352.307 258.281 355.016 260.156 358.297L262.578 362.516C266.953 370.12 269.141 377.464 269.141 384.547C269.141 394.911 265.443 403.688 258.047 410.875C250.703 418.062 241.719 421.656 231.094 421.656C225.99 421.656 220.938 420.484 215.938 418.141V387.281C218.958 389.208 221.641 390.172 223.984 390.172C226.745 390.172 229.036 389.391 230.859 387.828C232.734 386.214 233.672 384.208 233.672 381.812C233.672 380.25 232.188 376.839 229.219 371.578C224.479 363.245 222.109 354.911 222.109 346.578C222.109 336.526 225.677 327.88 232.812 320.641C240 313.349 248.568 309.703 258.516 309.703C262.891 309.703 267.188 310.432 271.406 311.891ZM338.125 309.703C353.229 309.703 366.172 315.198 376.953 326.188C387.786 337.177 393.203 350.328 393.203 365.641C393.203 381.214 387.76 394.443 376.875 405.328C365.99 416.214 352.76 421.656 337.188 421.656C321.719 421.656 308.516 416.188 297.578 405.25C286.641 394.312 281.172 381.109 281.172 365.641C281.172 350.016 286.667 336.786 297.656 325.953C308.698 315.12 322.188 309.703 338.125 309.703ZM337.188 341.109C330.677 341.109 325.13 343.505 320.547 348.297C315.964 353.089 313.672 358.87 313.672 365.641C313.672 372.411 315.964 378.193 320.547 382.984C325.182 387.776 330.729 390.172 337.188 390.172C343.75 390.172 349.297 387.802 353.828 383.062C358.411 378.271 360.703 372.464 360.703 365.641C360.703 358.818 358.411 353.036 353.828 348.297C349.297 343.505 343.75 341.109 337.188 341.109ZM442.891 382.125V354.156C449.297 354.156 452.5 351.708 452.5 346.812C452.5 342.333 450.052 340.094 445.156 340.094C440.208 340.094 437.734 343.167 437.734 349.312V419H406.016V352.594C406.016 345.719 406.693 340.094 408.047 335.719C409.453 331.292 411.823 327.177 415.156 323.375C418.906 319.156 423.594 315.823 429.219 313.375C434.844 310.927 440.651 309.703 446.641 309.703C457.474 309.703 466.562 313.349 473.906 320.641C481.302 327.932 485 336.969 485 347.75C485 358.219 481.693 366.708 475.078 373.219C469.036 379.208 459.922 382.203 447.734 382.203L442.891 382.125ZM548.281 311.891V342.281C545.99 341.5 544.219 341.109 542.969 341.109C540.573 341.109 538.516 341.995 536.797 343.766C535.078 345.536 534.219 347.672 534.219 350.172C534.219 352.307 535.156 355.016 537.031 358.297L539.453 362.516C543.828 370.12 546.016 377.464 546.016 384.547C546.016 394.911 542.318 403.688 534.922 410.875C527.578 418.062 518.594 421.656 507.969 421.656C502.865 421.656 497.812 420.484 492.812 418.141V387.281C495.833 389.208 498.516 390.172 500.859 390.172C503.62 390.172 505.911 389.391 507.734 387.828C509.609 386.214 510.547 384.208 510.547 381.812C510.547 380.25 509.062 376.839 506.094 371.578C501.354 363.245 498.984 354.911 498.984 346.578C498.984 336.526 502.552 327.88 509.688 320.641C516.875 313.349 525.443 309.703 535.391 309.703C539.766 309.703 544.062 310.432 548.281 311.891Z"/>
</mask>
<path d="M61.25 309.703C76.3542 309.703 89.2969 315.198 100.078 326.188C110.911 337.177 116.328 350.328 116.328 365.641C116.328 381.214 110.885 394.443 100 405.328C89.1146 416.214 75.8854 421.656 60.3125 421.656C44.8438 421.656 31.6406 416.188 20.7031 405.25C9.76562 394.312 4.29688 381.109 4.29688 365.641C4.29688 350.016 9.79167 336.786 20.7812 325.953C31.8229 315.12 45.3125 309.703 61.25 309.703ZM60.3125 341.109C53.8021 341.109 48.2552 343.505 43.6719 348.297C39.0885 353.089 36.7969 358.87 36.7969 365.641C36.7969 372.411 39.0885 378.193 43.6719 382.984C48.3073 387.776 53.8542 390.172 60.3125 390.172C66.875 390.172 72.4219 387.802 76.9531 383.062C81.5365 378.271 83.8281 372.464 83.8281 365.641C83.8281 358.818 81.5365 353.036 76.9531 348.297C72.4219 343.505 66.875 341.109 60.3125 341.109ZM166.016 382.125V354.156C172.422 354.156 175.625 351.708 175.625 346.812C175.625 342.333 173.177 340.094 168.281 340.094C163.333 340.094 160.859 343.167 160.859 349.312V419H129.141V352.594C129.141 345.719 129.818 340.094 131.172 335.719C132.578 331.292 134.948 327.177 138.281 323.375C142.031 319.156 146.719 315.823 152.344 313.375C157.969 310.927 163.776 309.703 169.766 309.703C180.599 309.703 189.688 313.349 197.031 320.641C204.427 327.932 208.125 336.969 208.125 347.75C208.125 358.219 204.818 366.708 198.203 373.219C192.161 379.208 183.047 382.203 170.859 382.203L166.016 382.125ZM271.406 311.891V342.281C269.115 341.5 267.344 341.109 266.094 341.109C263.698 341.109 261.641 341.995 259.922 343.766C258.203 345.536 257.344 347.672 257.344 350.172C257.344 352.307 258.281 355.016 260.156 358.297L262.578 362.516C266.953 370.12 269.141 377.464 269.141 384.547C269.141 394.911 265.443 403.688 258.047 410.875C250.703 418.062 241.719 421.656 231.094 421.656C225.99 421.656 220.938 420.484 215.938 418.141V387.281C218.958 389.208 221.641 390.172 223.984 390.172C226.745 390.172 229.036 389.391 230.859 387.828C232.734 386.214 233.672 384.208 233.672 381.812C233.672 380.25 232.188 376.839 229.219 371.578C224.479 363.245 222.109 354.911 222.109 346.578C222.109 336.526 225.677 327.88 232.812 320.641C240 313.349 248.568 309.703 258.516 309.703C262.891 309.703 267.188 310.432 271.406 311.891ZM338.125 309.703C353.229 309.703 366.172 315.198 376.953 326.188C387.786 337.177 393.203 350.328 393.203 365.641C393.203 381.214 387.76 394.443 376.875 405.328C365.99 416.214 352.76 421.656 337.188 421.656C321.719 421.656 308.516 416.188 297.578 405.25C286.641 394.312 281.172 381.109 281.172 365.641C281.172 350.016 286.667 336.786 297.656 325.953C308.698 315.12 322.188 309.703 338.125 309.703ZM337.188 341.109C330.677 341.109 325.13 343.505 320.547 348.297C315.964 353.089 313.672 358.87 313.672 365.641C313.672 372.411 315.964 378.193 320.547 382.984C325.182 387.776 330.729 390.172 337.188 390.172C343.75 390.172 349.297 387.802 353.828 383.062C358.411 378.271 360.703 372.464 360.703 365.641C360.703 358.818 358.411 353.036 353.828 348.297C349.297 343.505 343.75 341.109 337.188 341.109ZM442.891 382.125V354.156C449.297 354.156 452.5 351.708 452.5 346.812C452.5 342.333 450.052 340.094 445.156 340.094C440.208 340.094 437.734 343.167 437.734 349.312V419H406.016V352.594C406.016 345.719 406.693 340.094 408.047 335.719C409.453 331.292 411.823 327.177 415.156 323.375C418.906 319.156 423.594 315.823 429.219 313.375C434.844 310.927 440.651 309.703 446.641 309.703C457.474 309.703 466.562 313.349 473.906 320.641C481.302 327.932 485 336.969 485 347.75C485 358.219 481.693 366.708 475.078 373.219C469.036 379.208 459.922 382.203 447.734 382.203L442.891 382.125ZM548.281 311.891V342.281C545.99 341.5 544.219 341.109 542.969 341.109C540.573 341.109 538.516 341.995 536.797 343.766C535.078 345.536 534.219 347.672 534.219 350.172C534.219 352.307 535.156 355.016 537.031 358.297L539.453 362.516C543.828 370.12 546.016 377.464 546.016 384.547C546.016 394.911 542.318 403.688 534.922 410.875C527.578 418.062 518.594 421.656 507.969 421.656C502.865 421.656 497.812 420.484 492.812 418.141V387.281C495.833 389.208 498.516 390.172 500.859 390.172C503.62 390.172 505.911 389.391 507.734 387.828C509.609 386.214 510.547 384.208 510.547 381.812C510.547 380.25 509.062 376.839 506.094 371.578C501.354 363.245 498.984 354.911 498.984 346.578C498.984 336.526 502.552 327.88 509.688 320.641C516.875 313.349 525.443 309.703 535.391 309.703C539.766 309.703 544.062 310.432 548.281 311.891Z" fill="black"/>
<path d="M100.078 326.188L98.6504 327.588L98.6538 327.592L100.078 326.188ZM20.7812 325.953L19.3806 324.526L19.3772 324.529L20.7812 325.953ZM43.6719 348.297L45.1172 349.679L43.6719 348.297ZM43.6719 382.984L42.2266 384.367L42.2344 384.375L43.6719 382.984ZM76.9531 383.062L75.5078 381.68L75.5075 381.68L76.9531 383.062ZM76.9531 348.297L75.5 349.671L75.5076 349.679L75.5154 349.687L76.9531 348.297ZM61.25 309.703V311.703C75.8056 311.703 88.2372 316.974 98.6504 327.588L100.078 326.188L101.506 324.787C90.3566 313.422 76.9028 307.703 61.25 307.703V309.703ZM100.078 326.188L98.6538 327.592C109.121 338.21 114.328 350.858 114.328 365.641H116.328H118.328C118.328 349.798 112.701 336.144 101.502 324.783L100.078 326.188ZM116.328 365.641H114.328C114.328 380.69 109.091 393.408 98.5858 403.914L100 405.328L101.414 406.742C112.68 395.477 118.328 381.737 118.328 365.641H116.328ZM100 405.328L98.5858 403.914C88.0803 414.419 75.3619 419.656 60.3125 419.656V421.656V423.656C76.4089 423.656 90.1489 418.008 101.414 406.742L100 405.328ZM60.3125 421.656V419.656C45.3742 419.656 32.6797 414.398 22.1173 403.836L20.7031 405.25L19.2889 406.664C30.6015 417.977 44.3133 423.656 60.3125 423.656V421.656ZM20.7031 405.25L22.1173 403.836C11.5549 393.273 6.29688 380.579 6.29688 365.641H4.29688H2.29688C2.29688 381.64 7.97632 395.352 19.2889 406.664L20.7031 405.25ZM4.29688 365.641H6.29688C6.29688 350.543 11.5824 337.83 22.1853 327.377L20.7812 325.953L19.3772 324.529C8.00098 335.743 2.29688 349.488 2.29688 365.641H4.29688ZM20.7812 325.953L22.1819 327.381C32.8372 316.926 45.8186 311.703 61.25 311.703V309.703V307.703C44.8064 307.703 30.8086 313.313 19.3806 324.526L20.7812 325.953ZM60.3125 341.109V339.109C53.2449 339.109 47.1793 341.737 42.2266 346.914L43.6719 348.297L45.1172 349.679C49.3311 345.274 54.3592 343.109 60.3125 343.109V341.109ZM43.6719 348.297L42.2266 346.914C37.279 352.087 34.7969 358.367 34.7969 365.641H36.7969H38.7969C38.7969 359.373 40.8981 354.09 45.1172 349.679L43.6719 348.297ZM36.7969 365.641H34.7969C34.7969 372.914 37.279 379.194 42.2266 384.367L43.6719 382.984L45.1172 381.602C40.8981 377.191 38.7969 371.909 38.7969 365.641H36.7969ZM43.6719 382.984L42.2344 384.375C47.233 389.542 53.2929 392.172 60.3125 392.172V390.172V388.172C54.4154 388.172 49.3816 386.01 45.1093 381.594L43.6719 382.984ZM60.3125 390.172V392.172C67.4205 392.172 73.4898 389.579 78.3988 384.445L76.9531 383.062L75.5075 381.68C71.3539 386.025 66.3295 388.172 60.3125 388.172V390.172ZM76.9531 383.062L78.3984 384.445C83.3491 379.269 85.8281 372.962 85.8281 365.641H83.8281H81.8281C81.8281 371.965 79.7239 377.272 75.5078 381.68L76.9531 383.062ZM83.8281 365.641H85.8281C85.8281 358.319 83.3486 352.033 78.3908 346.907L76.9531 348.297L75.5154 349.687C79.7244 354.04 81.8281 359.316 81.8281 365.641H83.8281ZM76.9531 348.297L78.4063 346.923C73.4994 341.734 67.4279 339.109 60.3125 339.109V341.109V343.109C66.3221 343.109 71.3444 345.277 75.5 349.671L76.9531 348.297ZM166.016 382.125H164.016V384.093L165.983 384.125L166.016 382.125ZM166.016 354.156V352.156H164.016V354.156H166.016ZM160.859 419V421H162.859V419H160.859ZM129.141 419H127.141V421H129.141V419ZM131.172 335.719L129.266 335.113L129.263 335.12L129.261 335.127L131.172 335.719ZM138.281 323.375L136.786 322.046L136.777 322.057L138.281 323.375ZM197.031 320.641L195.622 322.06L195.627 322.065L197.031 320.641ZM198.203 373.219L196.8 371.793L196.795 371.798L198.203 373.219ZM170.859 382.203L170.827 384.203L170.843 384.203H170.859V382.203ZM166.016 382.125H168.016V354.156H166.016H164.016V382.125H166.016ZM166.016 354.156V356.156C169.417 356.156 172.335 355.516 174.437 353.909C176.641 352.225 177.625 349.734 177.625 346.812H175.625H173.625C173.625 348.786 173.007 349.968 172.008 350.731C170.908 351.572 169.02 352.156 166.016 352.156V354.156ZM175.625 346.812H177.625C177.625 344.217 176.907 341.916 175.139 340.298C173.404 338.711 170.996 338.094 168.281 338.094V340.094V342.094C170.463 342.094 171.726 342.596 172.439 343.249C173.119 343.871 173.625 344.929 173.625 346.812H175.625ZM168.281 340.094V338.094C165.37 338.094 162.868 339.019 161.157 341.144C159.513 343.187 158.859 346.024 158.859 349.312H160.859H162.859C162.859 346.455 163.443 344.683 164.273 343.653C165.036 342.705 166.244 342.094 168.281 342.094V340.094ZM160.859 349.312H158.859V419H160.859H162.859V349.312H160.859ZM160.859 419V417H129.141V419V421H160.859V419ZM129.141 419H131.141V352.594H129.141H127.141V419H129.141ZM129.141 352.594H131.141C131.141 345.829 131.809 340.423 133.082 336.31L131.172 335.719L129.261 335.127C127.826 339.764 127.141 345.608 127.141 352.594H129.141ZM131.172 335.719L133.078 336.324C134.394 332.183 136.617 328.307 139.785 324.693L138.281 323.375L136.777 322.057C133.278 326.047 130.763 330.401 129.266 335.113L131.172 335.719ZM138.281 323.375L139.776 324.704C143.317 320.72 147.76 317.551 153.142 315.209L152.344 313.375L151.546 311.541C145.678 314.095 140.746 317.592 136.786 322.046L138.281 323.375ZM152.344 313.375L153.142 315.209C158.521 312.868 164.057 311.703 169.766 311.703V309.703V307.703C163.495 307.703 157.416 308.986 151.546 311.541L152.344 313.375ZM169.766 309.703V311.703C180.098 311.703 188.672 315.159 195.622 322.06L197.031 320.641L198.44 319.221C190.703 311.539 181.099 307.703 169.766 307.703V309.703ZM197.031 320.641L195.627 322.065C202.626 328.965 206.125 337.481 206.125 347.75H208.125H210.125C210.125 336.456 206.228 326.9 198.435 319.216L197.031 320.641ZM208.125 347.75H206.125C206.125 357.758 202.982 365.708 196.8 371.793L198.203 373.219L199.606 374.644C206.653 367.708 210.125 358.68 210.125 347.75H208.125ZM198.203 373.219L196.795 371.798C191.264 377.282 182.749 380.203 170.859 380.203V382.203V384.203C183.345 384.203 193.059 381.135 199.611 374.639L198.203 373.219ZM170.859 382.203L170.892 380.203L166.048 380.125L166.016 382.125L165.983 384.125L170.827 384.203L170.859 382.203ZM271.406 311.891H273.406V310.466L272.06 310L271.406 311.891ZM271.406 342.281L270.761 344.174L273.406 345.076V342.281H271.406ZM260.156 358.297L258.42 359.289L258.422 359.293L260.156 358.297ZM262.578 362.516L260.844 363.511L260.845 363.513L262.578 362.516ZM258.047 410.875L256.653 409.441L256.648 409.446L258.047 410.875ZM215.938 418.141H213.938V419.412L215.089 419.952L215.938 418.141ZM215.938 387.281L217.013 385.595L213.938 383.633V387.281H215.938ZM230.859 387.828L232.161 389.347L232.164 389.344L230.859 387.828ZM229.219 371.578L230.961 370.595L230.957 370.589L229.219 371.578ZM232.812 320.641L231.388 319.237L231.388 319.237L232.812 320.641ZM271.406 311.891H269.406V342.281H271.406H273.406V311.891H271.406ZM271.406 342.281L272.052 340.388C269.709 339.59 267.683 339.109 266.094 339.109V341.109V343.109C267.004 343.109 268.52 343.41 270.761 344.174L271.406 342.281ZM266.094 341.109V339.109C263.139 339.109 260.569 340.227 258.487 342.373L259.922 343.766L261.357 345.159C262.712 343.763 264.257 343.109 266.094 343.109V341.109ZM259.922 343.766L258.487 342.373C256.4 344.522 255.344 347.159 255.344 350.172H257.344H259.344C259.344 348.184 260.006 346.551 261.357 345.159L259.922 343.766ZM257.344 350.172H255.344C255.344 352.83 256.487 355.907 258.42 359.289L260.156 358.297L261.893 357.305C260.076 354.125 259.344 351.784 259.344 350.172H257.344ZM260.156 358.297L258.422 359.293L260.844 363.511L262.578 362.516L264.313 361.52L261.891 357.301L260.156 358.297ZM262.578 362.516L260.845 363.513C265.086 370.885 267.141 377.888 267.141 384.547H269.141H271.141C271.141 377.039 268.82 369.354 264.312 361.518L262.578 362.516ZM269.141 384.547H267.141C267.141 394.374 263.659 402.632 256.653 409.441L258.047 410.875L259.441 412.309C267.226 404.743 271.141 395.449 271.141 384.547H269.141ZM258.047 410.875L256.648 409.446C249.692 416.254 241.216 419.656 231.094 419.656V421.656V423.656C242.222 423.656 251.714 419.871 259.446 412.304L258.047 410.875ZM231.094 421.656V419.656C226.306 419.656 221.543 418.559 216.786 416.33L215.938 418.141L215.089 419.952C220.332 422.409 225.673 423.656 231.094 423.656V421.656ZM215.938 418.141H217.938V387.281H215.938H213.938V418.141H215.938ZM215.938 387.281L214.862 388.967C218.046 390.999 221.108 392.172 223.984 392.172V390.172V388.172C222.173 388.172 219.87 387.418 217.013 385.595L215.938 387.281ZM223.984 390.172V392.172C227.146 392.172 229.922 391.266 232.161 389.347L230.859 387.828L229.558 386.31C228.151 387.515 226.343 388.172 223.984 388.172V390.172ZM230.859 387.828L232.164 389.344C234.464 387.363 235.672 384.812 235.672 381.812H233.672H231.672C231.672 383.605 231.005 385.064 229.554 386.313L230.859 387.828ZM233.672 381.812H235.672C235.672 380.573 235.133 378.987 234.393 377.284C233.611 375.489 232.461 373.253 230.961 370.595L229.219 371.578L227.477 372.561C228.946 375.163 230.022 377.264 230.725 378.88C231.468 380.589 231.672 381.49 231.672 381.812H233.672ZM229.219 371.578L230.957 370.589C226.363 362.511 224.109 354.516 224.109 346.578H222.109H220.109C220.109 355.307 222.595 363.978 227.48 372.567L229.219 371.578ZM222.109 346.578H224.109C224.109 337.058 227.466 328.915 234.237 322.045L232.812 320.641L231.388 319.237C223.888 326.846 220.109 335.994 220.109 346.578H222.109ZM232.812 320.641L234.237 322.045C241.061 315.122 249.12 311.703 258.516 311.703V309.703V307.703C248.015 307.703 238.939 311.576 231.388 319.237L232.812 320.641ZM258.516 309.703V311.703C262.664 311.703 266.74 312.394 270.753 313.781L271.406 311.891L272.06 310C267.635 308.471 263.118 307.703 258.516 307.703V309.703ZM376.953 326.188L375.525 327.588L375.529 327.592L376.953 326.188ZM297.656 325.953L296.256 324.526L296.252 324.529L297.656 325.953ZM320.547 348.297L321.992 349.679L320.547 348.297ZM320.547 382.984L319.102 384.367L319.109 384.375L320.547 382.984ZM353.828 383.062L352.383 381.68L352.382 381.68L353.828 383.062ZM353.828 348.297L352.375 349.671L352.383 349.679L352.39 349.687L353.828 348.297ZM338.125 309.703V311.703C352.681 311.703 365.112 316.974 375.525 327.588L376.953 326.188L378.381 324.787C367.232 313.422 353.778 307.703 338.125 307.703V309.703ZM376.953 326.188L375.529 327.592C385.996 338.21 391.203 350.858 391.203 365.641H393.203H395.203C395.203 349.798 389.576 336.144 378.377 324.783L376.953 326.188ZM393.203 365.641H391.203C391.203 380.69 385.966 393.408 375.461 403.914L376.875 405.328L378.289 406.742C389.555 395.477 395.203 381.737 395.203 365.641H393.203ZM376.875 405.328L375.461 403.914C364.955 414.419 352.237 419.656 337.188 419.656V421.656V423.656C353.284 423.656 367.024 418.008 378.289 406.742L376.875 405.328ZM337.188 421.656V419.656C322.249 419.656 309.555 414.398 298.992 403.836L297.578 405.25L296.164 406.664C307.477 417.977 321.188 423.656 337.188 423.656V421.656ZM297.578 405.25L298.992 403.836C288.43 393.273 283.172 380.579 283.172 365.641H281.172H279.172C279.172 381.64 284.851 395.352 296.164 406.664L297.578 405.25ZM281.172 365.641H283.172C283.172 350.543 288.457 337.83 299.06 327.377L297.656 325.953L296.252 324.529C284.876 335.743 279.172 349.488 279.172 365.641H281.172ZM297.656 325.953L299.057 327.381C309.712 316.926 322.694 311.703 338.125 311.703V309.703V307.703C321.681 307.703 307.684 313.313 296.256 324.526L297.656 325.953ZM337.188 341.109V339.109C330.12 339.109 324.054 341.737 319.102 346.914L320.547 348.297L321.992 349.679C326.206 345.274 331.234 343.109 337.188 343.109V341.109ZM320.547 348.297L319.102 346.914C314.154 352.087 311.672 358.367 311.672 365.641H313.672H315.672C315.672 359.373 317.773 354.09 321.992 349.679L320.547 348.297ZM313.672 365.641H311.672C311.672 372.914 314.154 379.194 319.102 384.367L320.547 382.984L321.992 381.602C317.773 377.191 315.672 371.909 315.672 365.641H313.672ZM320.547 382.984L319.109 384.375C324.108 389.542 330.168 392.172 337.188 392.172V390.172V388.172C331.29 388.172 326.257 386.01 321.984 381.594L320.547 382.984ZM337.188 390.172V392.172C344.296 392.172 350.365 389.579 355.274 384.445L353.828 383.062L352.382 381.68C348.229 386.025 343.204 388.172 337.188 388.172V390.172ZM353.828 383.062L355.273 384.445C360.224 379.269 362.703 372.962 362.703 365.641H360.703H358.703C358.703 371.965 356.599 377.272 352.383 381.68L353.828 383.062ZM360.703 365.641H362.703C362.703 358.319 360.224 352.033 355.266 346.907L353.828 348.297L352.39 349.687C356.599 354.04 358.703 359.316 358.703 365.641H360.703ZM353.828 348.297L355.281 346.923C350.374 341.734 344.303 339.109 337.188 339.109V341.109V343.109C343.197 343.109 348.219 345.277 352.375 349.671L353.828 348.297ZM442.891 382.125H440.891V384.093L442.858 384.125L442.891 382.125ZM442.891 354.156V352.156H440.891V354.156H442.891ZM437.734 419V421H439.734V419H437.734ZM406.016 419H404.016V421H406.016V419ZM408.047 335.719L406.141 335.113L406.138 335.12L406.136 335.127L408.047 335.719ZM415.156 323.375L413.661 322.046L413.652 322.057L415.156 323.375ZM473.906 320.641L472.497 322.06L472.502 322.065L473.906 320.641ZM475.078 373.219L473.675 371.793L473.67 371.798L475.078 373.219ZM447.734 382.203L447.702 384.203L447.718 384.203H447.734V382.203ZM442.891 382.125H444.891V354.156H442.891H440.891V382.125H442.891ZM442.891 354.156V356.156C446.292 356.156 449.21 355.516 451.312 353.909C453.516 352.225 454.5 349.734 454.5 346.812H452.5H450.5C450.5 348.786 449.882 349.968 448.883 350.731C447.783 351.572 445.895 352.156 442.891 352.156V354.156ZM452.5 346.812H454.5C454.5 344.217 453.782 341.916 452.014 340.298C450.279 338.711 447.871 338.094 445.156 338.094V340.094V342.094C447.338 342.094 448.601 342.596 449.314 343.249C449.994 343.871 450.5 344.929 450.5 346.812H452.5ZM445.156 340.094V338.094C442.245 338.094 439.743 339.019 438.032 341.144C436.388 343.187 435.734 346.024 435.734 349.312H437.734H439.734C439.734 346.455 440.318 344.683 441.148 343.653C441.911 342.705 443.119 342.094 445.156 342.094V340.094ZM437.734 349.312H435.734V419H437.734H439.734V349.312H437.734ZM437.734 419V417H406.016V419V421H437.734V419ZM406.016 419H408.016V352.594H406.016H404.016V419H406.016ZM406.016 352.594H408.016C408.016 345.829 408.684 340.423 409.957 336.31L408.047 335.719L406.136 335.127C404.701 339.764 404.016 345.608 404.016 352.594H406.016ZM408.047 335.719L409.953 336.324C411.269 332.183 413.492 328.307 416.66 324.693L415.156 323.375L413.652 322.057C410.153 326.047 407.638 330.401 406.141 335.113L408.047 335.719ZM415.156 323.375L416.651 324.704C420.192 320.72 424.635 317.551 430.017 315.209L429.219 313.375L428.421 311.541C422.553 314.095 417.621 317.592 413.661 322.046L415.156 323.375ZM429.219 313.375L430.017 315.209C435.396 312.868 440.932 311.703 446.641 311.703V309.703V307.703C440.37 307.703 434.291 308.986 428.421 311.541L429.219 313.375ZM446.641 309.703V311.703C456.973 311.703 465.547 315.159 472.497 322.06L473.906 320.641L475.315 319.221C467.578 311.539 457.974 307.703 446.641 307.703V309.703ZM473.906 320.641L472.502 322.065C479.501 328.965 483 337.481 483 347.75H485H487C487 336.456 483.103 326.9 475.31 319.216L473.906 320.641ZM485 347.75H483C483 357.758 479.857 365.708 473.675 371.793L475.078 373.219L476.481 374.644C483.528 367.708 487 358.68 487 347.75H485ZM475.078 373.219L473.67 371.798C468.139 377.282 459.624 380.203 447.734 380.203V382.203V384.203C460.22 384.203 469.934 381.135 476.486 374.639L475.078 373.219ZM447.734 382.203L447.767 380.203L442.923 380.125L442.891 382.125L442.858 384.125L447.702 384.203L447.734 382.203ZM548.281 311.891H550.281V310.466L548.935 310L548.281 311.891ZM548.281 342.281L547.636 344.174L550.281 345.076V342.281H548.281ZM537.031 358.297L535.295 359.289L535.297 359.293L537.031 358.297ZM539.453 362.516L537.719 363.511L537.72 363.513L539.453 362.516ZM534.922 410.875L533.528 409.441L533.523 409.446L534.922 410.875ZM492.812 418.141H490.812V419.412L491.964 419.952L492.812 418.141ZM492.812 387.281L493.888 385.595L490.812 383.633V387.281H492.812ZM507.734 387.828L509.036 389.347L509.039 389.344L507.734 387.828ZM506.094 371.578L507.836 370.595L507.832 370.589L506.094 371.578ZM509.688 320.641L508.263 319.237L508.263 319.237L509.688 320.641ZM548.281 311.891H546.281V342.281H548.281H550.281V311.891H548.281ZM548.281 342.281L548.927 340.388C546.584 339.59 544.558 339.109 542.969 339.109V341.109V343.109C543.879 343.109 545.395 343.41 547.636 344.174L548.281 342.281ZM542.969 341.109V339.109C540.014 339.109 537.444 340.227 535.362 342.373L536.797 343.766L538.232 345.159C539.587 343.763 541.132 343.109 542.969 343.109V341.109ZM536.797 343.766L535.362 342.373C533.275 344.522 532.219 347.159 532.219 350.172H534.219H536.219C536.219 348.184 536.881 346.551 538.232 345.159L536.797 343.766ZM534.219 350.172H532.219C532.219 352.83 533.362 355.907 535.295 359.289L537.031 358.297L538.768 357.305C536.951 354.125 536.219 351.784 536.219 350.172H534.219ZM537.031 358.297L535.297 359.293L537.719 363.511L539.453 362.516L541.188 361.52L538.766 357.301L537.031 358.297ZM539.453 362.516L537.72 363.513C541.961 370.885 544.016 377.888 544.016 384.547H546.016H548.016C548.016 377.039 545.695 369.354 541.187 361.518L539.453 362.516ZM546.016 384.547H544.016C544.016 394.374 540.534 402.632 533.528 409.441L534.922 410.875L536.316 412.309C544.101 404.743 548.016 395.449 548.016 384.547H546.016ZM534.922 410.875L533.523 409.446C526.567 416.254 518.091 419.656 507.969 419.656V421.656V423.656C519.097 423.656 528.589 419.871 536.321 412.304L534.922 410.875ZM507.969 421.656V419.656C503.181 419.656 498.418 418.559 493.661 416.33L492.812 418.141L491.964 419.952C497.207 422.409 502.548 423.656 507.969 423.656V421.656ZM492.812 418.141H494.812V387.281H492.812H490.812V418.141H492.812ZM492.812 387.281L491.737 388.967C494.921 390.999 497.983 392.172 500.859 392.172V390.172V388.172C499.048 388.172 496.745 387.418 493.888 385.595L492.812 387.281ZM500.859 390.172V392.172C504.021 392.172 506.797 391.266 509.036 389.347L507.734 387.828L506.433 386.31C505.026 387.515 503.218 388.172 500.859 388.172V390.172ZM507.734 387.828L509.039 389.344C511.339 387.363 512.547 384.812 512.547 381.812H510.547H508.547C508.547 383.605 507.88 385.064 506.429 386.313L507.734 387.828ZM510.547 381.812H512.547C512.547 380.573 512.008 378.987 511.268 377.284C510.486 375.489 509.336 373.253 507.836 370.595L506.094 371.578L504.352 372.561C505.821 375.163 506.897 377.264 507.6 378.88C508.343 380.589 508.547 381.49 508.547 381.812H510.547ZM506.094 371.578L507.832 370.589C503.238 362.511 500.984 354.516 500.984 346.578H498.984H496.984C496.984 355.307 499.47 363.978 504.355 372.567L506.094 371.578ZM498.984 346.578H500.984C500.984 337.058 504.341 328.915 511.112 322.045L509.688 320.641L508.263 319.237C500.763 326.846 496.984 335.994 496.984 346.578H498.984ZM509.688 320.641L511.112 322.045C517.936 315.122 525.995 311.703 535.391 311.703V309.703V307.703C524.89 307.703 515.814 311.576 508.263 319.237L509.688 320.641ZM535.391 309.703V311.703C539.539 311.703 543.615 312.394 547.628 313.781L548.281 311.891L548.935 310C544.51 308.471 539.993 307.703 535.391 307.703V309.703Z" fill="#6B7280" mask="url(#path-1-outside-1_25_17)"/>
<path d="M414.5 0V43.5H368L350.5 61V172L393 219.5L344.5 220.5L301 169.5V154.5V117.5V38.5L339.5 0H414.5Z" fill="url(#paint0_linear_25_17)"/>
<path d="M211.003 220H343.503L392.003 219L408.003 223C409.606 223.452 410.498 223.877 410.503 225V262.5C410.659 266.721 409.218 268.053 403.503 268H144.003C140.376 268.032 138.931 267.352 139.003 263V226.5C139.044 223.877 140.042 223.08 143.003 222.5L163.003 217L211.003 220Z" fill="url(#paint1_linear_25_17)"/>
<path d="M254.001 154.008V172.008L197.001 180.508V124.008C196.971 118.383 198.234 116.871 202.501 117.008H300.001V154.008H254.001Z" fill="url(#paint2_linear_25_17)"/>
<path d="M254 172L211 220L163 217L204 173L254 172Z" fill="url(#paint3_linear_25_17)"/>
<defs>
<linearGradient id="paint0_linear_25_17" x1="386" y1="8.5" x2="358" y2="217.5" gradientUnits="userSpaceOnUse">
<stop stop-color="#02D0F5"/>
<stop offset="0.432692" stop-color="#01B3F1"/>
<stop offset="1" stop-color="#006FF7"/>
</linearGradient>
<linearGradient id="paint1_linear_25_17" x1="139" y1="242.501" x2="410.514" y2="242.501" gradientUnits="userSpaceOnUse">
<stop stop-color="#01F0F7"/>
<stop offset="1" stop-color="#023FF9"/>
</linearGradient>
<linearGradient id="paint2_linear_25_17" x1="300" y1="128" x2="206" y2="174" gradientUnits="userSpaceOnUse">
<stop stop-color="#ADECFF" stop-opacity="0.29"/>
<stop offset="0.305355" stop-color="#5ADEFB" stop-opacity="0.635479"/>
<stop offset="1" stop-color="#02C6F6"/>
</linearGradient>
<linearGradient id="paint3_linear_25_17" x1="251.5" y1="173" x2="164" y2="217" gradientUnits="userSpaceOnUse">
<stop stop-color="#04B0F5" stop-opacity="0.93"/>
<stop offset="1" stop-color="#01DFF7"/>
</linearGradient>
</defs>
</svg>
