<svg width="554" height="426" viewBox="0 0 554 426" fill="none" xmlns="http://www.w3.org/2000/svg">
<mask id="path-1-outside-1_13_32" maskUnits="userSpaceOnUse" x="0" y="305" width="553" height="121" fill="black">
<rect fill="white" y="305" width="553" height="121"/>
<path d="M61.25 309.703C76.3542 309.703 89.2969 315.198 100.078 326.188C110.911 337.177 116.328 350.328 116.328 365.641C116.328 381.214 110.885 394.443 100 405.328C89.1146 416.214 75.8854 421.656 60.3125 421.656C44.8438 421.656 31.6406 416.188 20.7031 405.25C9.76562 394.312 4.29688 381.109 4.29688 365.641C4.29688 350.016 9.79167 336.786 20.7812 325.953C31.8229 315.12 45.3125 309.703 61.25 309.703ZM60.3125 341.109C53.8021 341.109 48.2552 343.505 43.6719 348.297C39.0885 353.089 36.7969 358.87 36.7969 365.641C36.7969 372.411 39.0885 378.193 43.6719 382.984C48.3073 387.776 53.8542 390.172 60.3125 390.172C66.875 390.172 72.4219 387.802 76.9531 383.062C81.5365 378.271 83.8281 372.464 83.8281 365.641C83.8281 358.818 81.5365 353.036 76.9531 348.297C72.4219 343.505 66.875 341.109 60.3125 341.109ZM166.016 382.125V354.156C172.422 354.156 175.625 351.708 175.625 346.812C175.625 342.333 173.177 340.094 168.281 340.094C163.333 340.094 160.859 343.167 160.859 349.312V419H129.141V352.594C129.141 345.719 129.818 340.094 131.172 335.719C132.578 331.292 134.948 327.177 138.281 323.375C142.031 319.156 146.719 315.823 152.344 313.375C157.969 310.927 163.776 309.703 169.766 309.703C180.599 309.703 189.688 313.349 197.031 320.641C204.427 327.932 208.125 336.969 208.125 347.75C208.125 358.219 204.818 366.708 198.203 373.219C192.161 379.208 183.047 382.203 170.859 382.203L166.016 382.125ZM271.406 311.891V342.281C269.115 341.5 267.344 341.109 266.094 341.109C263.698 341.109 261.641 341.995 259.922 343.766C258.203 345.536 257.344 347.672 257.344 350.172C257.344 352.307 258.281 355.016 260.156 358.297L262.578 362.516C266.953 370.12 269.141 377.464 269.141 384.547C269.141 394.911 265.443 403.688 258.047 410.875C250.703 418.062 241.719 421.656 231.094 421.656C225.99 421.656 220.938 420.484 215.938 418.141V387.281C218.958 389.208 221.641 390.172 223.984 390.172C226.745 390.172 229.036 389.391 230.859 387.828C232.734 386.214 233.672 384.208 233.672 381.812C233.672 380.25 232.188 376.839 229.219 371.578C224.479 363.245 222.109 354.911 222.109 346.578C222.109 336.526 225.677 327.88 232.812 320.641C240 313.349 248.568 309.703 258.516 309.703C262.891 309.703 267.188 310.432 271.406 311.891ZM338.125 309.703C353.229 309.703 366.172 315.198 376.953 326.188C387.786 337.177 393.203 350.328 393.203 365.641C393.203 381.214 387.76 394.443 376.875 405.328C365.99 416.214 352.76 421.656 337.188 421.656C321.719 421.656 308.516 416.188 297.578 405.25C286.641 394.312 281.172 381.109 281.172 365.641C281.172 350.016 286.667 336.786 297.656 325.953C308.698 315.12 322.188 309.703 338.125 309.703ZM337.188 341.109C330.677 341.109 325.13 343.505 320.547 348.297C315.964 353.089 313.672 358.87 313.672 365.641C313.672 372.411 315.964 378.193 320.547 382.984C325.182 387.776 330.729 390.172 337.188 390.172C343.75 390.172 349.297 387.802 353.828 383.062C358.411 378.271 360.703 372.464 360.703 365.641C360.703 358.818 358.411 353.036 353.828 348.297C349.297 343.505 343.75 341.109 337.188 341.109ZM442.891 382.125V354.156C449.297 354.156 452.5 351.708 452.5 346.812C452.5 342.333 450.052 340.094 445.156 340.094C440.208 340.094 437.734 343.167 437.734 349.312V419H406.016V352.594C406.016 345.719 406.693 340.094 408.047 335.719C409.453 331.292 411.823 327.177 415.156 323.375C418.906 319.156 423.594 315.823 429.219 313.375C434.844 310.927 440.651 309.703 446.641 309.703C457.474 309.703 466.562 313.349 473.906 320.641C481.302 327.932 485 336.969 485 347.75C485 358.219 481.693 366.708 475.078 373.219C469.036 379.208 459.922 382.203 447.734 382.203L442.891 382.125ZM548.281 311.891V342.281C545.99 341.5 544.219 341.109 542.969 341.109C540.573 341.109 538.516 341.995 536.797 343.766C535.078 345.536 534.219 347.672 534.219 350.172C534.219 352.307 535.156 355.016 537.031 358.297L539.453 362.516C543.828 370.12 546.016 377.464 546.016 384.547C546.016 394.911 542.318 403.688 534.922 410.875C527.578 418.062 518.594 421.656 507.969 421.656C502.865 421.656 497.812 420.484 492.812 418.141V387.281C495.833 389.208 498.516 390.172 500.859 390.172C503.62 390.172 505.911 389.391 507.734 387.828C509.609 386.214 510.547 384.208 510.547 381.812C510.547 380.25 509.062 376.839 506.094 371.578C501.354 363.245 498.984 354.911 498.984 346.578C498.984 336.526 502.552 327.88 509.688 320.641C516.875 313.349 525.443 309.703 535.391 309.703C539.766 309.703 544.062 310.432 548.281 311.891Z"/>
</mask>
<path d="M100.078 326.188L97.2228 328.989L97.2295 328.996L100.078 326.188ZM20.7812 325.953L17.9799 323.098L17.9731 323.105L20.7812 325.953ZM43.6719 348.297L46.5624 351.062L43.6719 348.297ZM43.6719 382.984L40.7813 385.749L40.7891 385.757L40.797 385.766L43.6719 382.984ZM76.9531 383.062L74.0626 380.298L74.0619 380.298L76.9531 383.062ZM76.9531 348.297L74.0468 351.045L74.0622 351.061L74.0777 351.078L76.9531 348.297ZM61.25 309.703V313.703C75.257 313.703 87.1774 318.749 97.2228 328.989L100.078 326.188L102.933 323.386C91.4163 311.647 77.4513 305.703 61.25 305.703V309.703ZM100.078 326.188L97.2295 328.996C107.331 339.243 112.328 351.388 112.328 365.641H116.328H120.328C120.328 349.268 114.491 335.111 102.927 323.379L100.078 326.188ZM116.328 365.641H112.328C112.328 380.167 107.297 392.374 97.1716 402.5L100 405.328L102.828 408.157C114.474 396.511 120.328 382.261 120.328 365.641H116.328ZM100 405.328L97.1716 402.5C87.046 412.625 74.8384 417.656 60.3125 417.656V421.656V425.656C76.9324 425.656 91.1831 419.802 102.828 408.157L100 405.328ZM60.3125 421.656V417.656C45.9046 417.656 33.7189 412.609 23.5316 402.422L20.7031 405.25L17.8747 408.078C29.5624 419.766 43.7829 425.656 60.3125 425.656V421.656ZM20.7031 405.25L23.5316 402.422C13.3442 392.234 8.29688 380.049 8.29688 365.641H4.29688H0.296875C0.296875 382.17 6.18701 396.391 17.8747 408.078L20.7031 405.25ZM4.29688 365.641H8.29688C8.29688 351.071 13.373 338.873 23.5894 328.802L20.7812 325.953L17.9731 323.105C6.2103 334.7 0.296875 348.96 0.296875 365.641H4.29688ZM20.7812 325.953L23.5826 328.808C33.8515 318.733 46.3248 313.703 61.25 313.703V309.703V305.703C44.3002 305.703 29.7943 311.506 17.9799 323.098L20.7812 325.953ZM60.3125 341.109V337.109C52.6878 337.109 46.1035 339.968 40.7813 345.532L43.6719 348.297L46.5624 351.062C50.4069 347.043 54.9164 345.109 60.3125 345.109V341.109ZM43.6719 348.297L40.7813 345.532C35.4694 351.085 32.7969 357.864 32.7969 365.641H36.7969H40.7969C40.7969 359.876 42.7077 355.092 46.5624 351.062L43.6719 348.297ZM36.7969 365.641H32.7969C32.7969 373.417 35.4694 380.196 40.7813 385.749L43.6719 382.984L46.5624 380.219C42.7077 376.19 40.7969 371.406 40.7969 365.641H36.7969ZM43.6719 382.984L40.797 385.766C46.1586 391.308 52.7316 394.172 60.3125 394.172V390.172V386.172C54.9767 386.172 50.456 384.244 46.5468 380.203L43.6719 382.984ZM60.3125 390.172V394.172C67.966 394.172 74.5578 391.356 79.8444 385.827L76.9531 383.062L74.0619 380.298C70.286 384.248 65.784 386.172 60.3125 386.172V390.172ZM76.9531 383.062L79.8437 385.827C85.1617 380.268 87.8281 373.46 87.8281 365.641H83.8281H79.8281C79.8281 371.467 77.9113 376.274 74.0626 380.298L76.9531 383.062ZM83.8281 365.641H87.8281C87.8281 357.82 85.1607 351.03 79.8286 345.516L76.9531 348.297L74.0777 351.078C77.9122 355.043 79.8281 359.815 79.8281 365.641H83.8281ZM76.9531 348.297L79.8594 345.549C74.5769 339.962 67.9808 337.109 60.3125 337.109V341.109V345.109C65.7692 345.109 70.2669 347.048 74.0468 351.045L76.9531 348.297ZM166.016 382.125H162.016V386.061L165.951 386.124L166.016 382.125ZM166.016 354.156V350.156H162.016V354.156H166.016ZM160.859 419V423H164.859V419H160.859ZM129.141 419H125.141V423H129.141V419ZM131.172 335.719L127.36 334.508L127.355 334.522L127.351 334.536L131.172 335.719ZM138.281 323.375L135.292 320.718L135.283 320.728L135.273 320.738L138.281 323.375ZM197.031 320.641L194.213 323.479L194.223 323.489L197.031 320.641ZM198.203 373.219L195.397 370.368L195.392 370.373L195.387 370.378L198.203 373.219ZM170.859 382.203L170.795 386.203L170.827 386.203H170.859V382.203ZM166.016 382.125H170.016V354.156H166.016H162.016V382.125H166.016ZM166.016 354.156V358.156C169.615 358.156 173.048 357.488 175.652 355.498C178.458 353.353 179.625 350.208 179.625 346.812H175.625H171.625C171.625 348.312 171.19 348.839 170.794 349.142C170.194 349.6 168.822 350.156 166.016 350.156V354.156ZM175.625 346.812H179.625C179.625 343.86 178.802 340.938 176.489 338.822C174.244 336.768 171.262 336.094 168.281 336.094V340.094V344.094C170.196 344.094 170.886 344.539 171.089 344.725C171.224 344.848 171.625 345.286 171.625 346.812H175.625ZM168.281 340.094V336.094C164.933 336.094 161.784 337.176 159.599 339.89C157.548 342.438 156.859 345.808 156.859 349.312H160.859H164.859C164.859 346.671 165.408 345.432 165.831 344.907C166.12 344.548 166.681 344.094 168.281 344.094V340.094ZM160.859 349.312H156.859V419H160.859H164.859V349.312H160.859ZM160.859 419V415H129.141V419V423H160.859V419ZM129.141 419H133.141V352.594H129.141H125.141V419H129.141ZM129.141 352.594H133.141C133.141 345.94 133.801 340.753 134.993 336.901L131.172 335.719L127.351 334.536C125.835 339.434 125.141 345.497 125.141 352.594H129.141ZM131.172 335.719L134.984 336.93C136.209 333.073 138.287 329.436 141.289 326.012L138.281 323.375L135.273 320.738C131.609 324.918 128.947 329.51 127.36 334.508L131.172 335.719ZM138.281 323.375L141.271 326.032C144.603 322.284 148.8 319.279 153.94 317.043L152.344 313.375L150.748 309.707C144.637 312.366 139.46 316.028 135.292 320.718L138.281 323.375ZM152.344 313.375L153.94 317.043C159.074 314.809 164.339 313.703 169.766 313.703V309.703V305.703C163.213 305.703 156.864 307.046 150.748 309.707L152.344 313.375ZM169.766 309.703V313.703C179.598 313.703 187.657 316.969 194.213 323.479L197.031 320.641L199.85 317.802C191.718 309.729 181.6 305.703 169.766 305.703V309.703ZM197.031 320.641L194.223 323.489C200.824 329.998 204.125 337.994 204.125 347.75H208.125H212.125C212.125 335.944 208.03 325.867 199.84 317.792L197.031 320.641ZM208.125 347.75H204.125C204.125 357.297 201.147 364.709 195.397 370.368L198.203 373.219L201.009 376.07C208.488 368.708 212.125 359.141 212.125 347.75H208.125ZM198.203 373.219L195.387 370.378C190.367 375.355 182.451 378.203 170.859 378.203V382.203V386.203C183.643 386.203 193.956 383.062 201.019 376.059L198.203 373.219ZM170.859 382.203L170.924 378.204L166.08 378.126L166.016 382.125L165.951 386.124L170.795 386.203L170.859 382.203ZM271.406 311.891H275.406V309.041L272.713 308.11L271.406 311.891ZM271.406 342.281L270.116 346.067L275.406 347.871V342.281H271.406ZM260.156 358.297L256.683 360.281L256.687 360.288L260.156 358.297ZM262.578 362.516L259.109 364.507L259.111 364.51L262.578 362.516ZM258.047 410.875L255.259 408.006L255.249 408.016L258.047 410.875ZM215.938 418.141H211.938V420.683L214.24 421.762L215.938 418.141ZM215.938 387.281L218.089 383.909L211.938 379.985V387.281H215.938ZM230.859 387.828L233.463 390.865L233.469 390.859L230.859 387.828ZM229.219 371.578L232.702 369.612L232.696 369.601L229.219 371.578ZM232.812 320.641L229.964 317.833L229.964 317.833L232.812 320.641ZM271.406 311.891H267.406V342.281H271.406H275.406V311.891H271.406ZM271.406 342.281L272.697 338.495C270.303 337.679 268.023 337.109 266.094 337.109V341.109V345.109C266.665 345.109 267.926 345.321 270.116 346.067L271.406 342.281ZM266.094 341.109V337.109C262.58 337.109 259.498 338.459 257.052 340.98L259.922 343.766L262.792 346.552C263.783 345.531 264.815 345.109 266.094 345.109V341.109ZM259.922 343.766L257.052 340.98C254.598 343.508 253.344 346.647 253.344 350.172H257.344H261.344C261.344 348.697 261.808 347.565 262.792 346.552L259.922 343.766ZM257.344 350.172H253.344C253.344 353.353 254.692 356.797 256.683 360.281L260.156 358.297L263.629 356.312C261.87 353.234 261.344 351.261 261.344 350.172H257.344ZM260.156 358.297L256.687 360.288L259.109 364.507L262.578 362.516L266.047 360.524L263.625 356.305L260.156 358.297ZM262.578 362.516L259.111 364.51C263.219 371.651 265.141 378.312 265.141 384.547H269.141H273.141C273.141 376.615 270.687 368.588 266.045 360.521L262.578 362.516ZM269.141 384.547H265.141C265.141 393.837 261.876 401.576 255.259 408.006L258.047 410.875L260.835 413.744C269.01 405.799 273.141 395.986 273.141 384.547H269.141ZM258.047 410.875L255.249 408.016C248.681 414.445 240.712 417.656 231.094 417.656V421.656V425.656C242.725 425.656 252.726 421.68 260.845 413.734L258.047 410.875ZM231.094 421.656V417.656C226.623 417.656 222.148 416.634 217.635 414.519L215.938 418.141L214.24 421.762C219.727 424.335 225.356 425.656 231.094 425.656V421.656ZM215.938 418.141H219.938V387.281H215.938H211.938V418.141H215.938ZM215.938 387.281L213.786 390.653C217.135 392.79 220.575 394.172 223.984 394.172V390.172V386.172C222.706 386.172 220.782 385.627 218.089 383.909L215.938 387.281ZM223.984 390.172V394.172C227.548 394.172 230.807 393.141 233.463 390.865L230.859 387.828L228.256 384.791C227.266 385.64 225.942 386.172 223.984 386.172V390.172ZM230.859 387.828L233.469 390.859C236.194 388.513 237.672 385.416 237.672 381.812H233.672H229.672C229.672 383.001 229.275 383.914 228.249 384.797L230.859 387.828ZM233.672 381.812H237.672C237.672 380.115 236.966 378.186 236.226 376.486C235.406 374.601 234.218 372.298 232.702 369.612L229.219 371.578L225.735 373.544C227.188 376.118 228.227 378.152 228.891 379.678C229.635 381.39 229.672 381.948 229.672 381.812H233.672ZM229.219 371.578L232.696 369.601C228.247 361.778 226.109 354.12 226.109 346.578H222.109H218.109C218.109 355.703 220.712 364.711 225.742 373.556L229.219 371.578ZM222.109 346.578H226.109C226.109 337.59 229.254 329.949 235.661 323.448L232.812 320.641L229.964 317.833C222.1 325.811 218.109 335.462 218.109 346.578H222.109ZM232.812 320.641L235.661 323.449C242.122 316.895 249.673 313.703 258.516 313.703V309.703V305.703C247.462 305.703 237.878 309.803 229.964 317.833L232.812 320.641ZM258.516 309.703V313.703C262.437 313.703 266.292 314.355 270.099 315.671L271.406 311.891L272.713 308.11C268.083 306.509 263.344 305.703 258.516 305.703V309.703ZM376.953 326.188L374.098 328.989L374.105 328.996L376.953 326.188ZM297.656 325.953L294.855 323.098L294.848 323.105L297.656 325.953ZM320.547 348.297L323.437 351.062L320.547 348.297ZM320.547 382.984L317.656 385.749L317.664 385.757L317.672 385.766L320.547 382.984ZM353.828 383.062L350.938 380.298L350.937 380.298L353.828 383.062ZM353.828 348.297L350.922 351.045L350.937 351.061L350.953 351.078L353.828 348.297ZM338.125 309.703V313.703C352.132 313.703 364.052 318.749 374.098 328.989L376.953 326.188L379.809 323.386C368.291 311.647 354.326 305.703 338.125 305.703V309.703ZM376.953 326.188L374.105 328.996C384.207 339.243 389.203 351.388 389.203 365.641H393.203H397.203C397.203 349.268 391.366 335.111 379.802 323.379L376.953 326.188ZM393.203 365.641H389.203C389.203 380.167 384.172 392.374 374.047 402.5L376.875 405.328L379.703 408.157C391.349 396.511 397.203 382.261 397.203 365.641H393.203ZM376.875 405.328L374.047 402.5C363.921 412.625 351.713 417.656 337.188 417.656V421.656V425.656C353.807 425.656 368.058 419.802 379.703 408.157L376.875 405.328ZM337.188 421.656V417.656C322.78 417.656 310.594 412.609 300.407 402.422L297.578 405.25L294.75 408.078C306.437 419.766 320.658 425.656 337.188 425.656V421.656ZM297.578 405.25L300.407 402.422C290.219 392.234 285.172 380.049 285.172 365.641H281.172H277.172C277.172 382.17 283.062 396.391 294.75 408.078L297.578 405.25ZM281.172 365.641H285.172C285.172 351.071 290.248 338.873 300.464 328.802L297.656 325.953L294.848 323.105C283.085 334.7 277.172 348.96 277.172 365.641H281.172ZM297.656 325.953L300.458 328.808C310.727 318.733 323.2 313.703 338.125 313.703V309.703V305.703C321.175 305.703 306.669 311.506 294.855 323.098L297.656 325.953ZM337.188 341.109V337.109C329.563 337.109 322.978 339.968 317.656 345.532L320.547 348.297L323.437 351.062C327.282 347.043 331.791 345.109 337.188 345.109V341.109ZM320.547 348.297L317.656 345.532C312.344 351.085 309.672 357.864 309.672 365.641H313.672H317.672C317.672 359.876 319.583 355.092 323.437 351.062L320.547 348.297ZM313.672 365.641H309.672C309.672 373.417 312.344 380.196 317.656 385.749L320.547 382.984L323.437 380.219C319.583 376.19 317.672 371.406 317.672 365.641H313.672ZM320.547 382.984L317.672 385.766C323.034 391.308 329.607 394.172 337.188 394.172V390.172V386.172C331.852 386.172 327.331 384.244 323.422 380.203L320.547 382.984ZM337.188 390.172V394.172C344.841 394.172 351.433 391.356 356.719 385.827L353.828 383.062L350.937 380.298C347.161 384.248 342.659 386.172 337.188 386.172V390.172ZM353.828 383.062L356.719 385.827C362.037 380.268 364.703 373.46 364.703 365.641H360.703H356.703C356.703 371.467 354.786 376.274 350.938 380.298L353.828 383.062ZM360.703 365.641H364.703C364.703 357.82 362.036 351.03 356.704 345.516L353.828 348.297L350.953 351.078C354.787 355.043 356.703 359.815 356.703 365.641H360.703ZM353.828 348.297L356.734 345.549C351.452 339.962 344.856 337.109 337.188 337.109V341.109V345.109C342.644 345.109 347.142 347.048 350.922 351.045L353.828 348.297ZM442.891 382.125H438.891V386.061L442.826 386.124L442.891 382.125ZM442.891 354.156V350.156H438.891V354.156H442.891ZM437.734 419V423H441.734V419H437.734ZM406.016 419H402.016V423H406.016V419ZM408.047 335.719L404.235 334.508L404.23 334.522L404.226 334.536L408.047 335.719ZM415.156 323.375L412.167 320.718L412.158 320.728L412.148 320.738L415.156 323.375ZM473.906 320.641L471.088 323.479L471.098 323.489L473.906 320.641ZM475.078 373.219L472.272 370.368L472.267 370.373L472.262 370.378L475.078 373.219ZM447.734 382.203L447.67 386.203L447.702 386.203H447.734V382.203ZM442.891 382.125H446.891V354.156H442.891H438.891V382.125H442.891ZM442.891 354.156V358.156C446.49 358.156 449.923 357.488 452.526 355.498C455.333 353.353 456.5 350.208 456.5 346.812H452.5H448.5C448.5 348.312 448.065 348.839 447.669 349.142C447.069 349.6 445.697 350.156 442.891 350.156V354.156ZM452.5 346.812H456.5C456.5 343.86 455.677 340.938 453.364 338.822C451.119 336.768 448.137 336.094 445.156 336.094V340.094V344.094C447.071 344.094 447.761 344.539 447.964 344.725C448.099 344.848 448.5 345.286 448.5 346.812H452.5ZM445.156 340.094V336.094C441.808 336.094 438.659 337.176 436.474 339.89C434.423 342.438 433.734 345.808 433.734 349.312H437.734H441.734C441.734 346.671 442.283 345.432 442.706 344.907C442.995 344.548 443.556 344.094 445.156 344.094V340.094ZM437.734 349.312H433.734V419H437.734H441.734V349.312H437.734ZM437.734 419V415H406.016V419V423H437.734V419ZM406.016 419H410.016V352.594H406.016H402.016V419H406.016ZM406.016 352.594H410.016C410.016 345.94 410.676 340.753 411.868 336.901L408.047 335.719L404.226 334.536C402.71 339.434 402.016 345.497 402.016 352.594H406.016ZM408.047 335.719L411.859 336.93C413.084 333.073 415.162 329.436 418.164 326.012L415.156 323.375L412.148 320.738C408.484 324.918 405.822 329.51 404.235 334.508L408.047 335.719ZM415.156 323.375L418.146 326.032C421.478 322.284 425.675 319.279 430.815 317.043L429.219 313.375L427.623 309.707C421.512 312.366 416.335 316.028 412.167 320.718L415.156 323.375ZM429.219 313.375L430.815 317.043C435.949 314.809 441.214 313.703 446.641 313.703V309.703V305.703C440.088 305.703 433.739 307.046 427.623 309.707L429.219 313.375ZM446.641 309.703V313.703C456.473 313.703 464.532 316.969 471.088 323.479L473.906 320.641L476.725 317.802C468.593 309.729 458.475 305.703 446.641 305.703V309.703ZM473.906 320.641L471.098 323.489C477.699 329.998 481 337.994 481 347.75H485H489C489 335.944 484.905 325.867 476.715 317.792L473.906 320.641ZM485 347.75H481C481 357.297 478.022 364.709 472.272 370.368L475.078 373.219L477.884 376.07C485.363 368.708 489 359.141 489 347.75H485ZM475.078 373.219L472.262 370.378C467.242 375.355 459.326 378.203 447.734 378.203V382.203V386.203C460.518 386.203 470.831 383.062 477.894 376.059L475.078 373.219ZM447.734 382.203L447.799 378.204L442.955 378.126L442.891 382.125L442.826 386.124L447.67 386.203L447.734 382.203ZM548.281 311.891H552.281V309.041L549.588 308.11L548.281 311.891ZM548.281 342.281L546.991 346.067L552.281 347.871V342.281H548.281ZM537.031 358.297L533.558 360.281L533.562 360.288L537.031 358.297ZM539.453 362.516L535.984 364.507L535.986 364.51L539.453 362.516ZM534.922 410.875L532.134 408.006L532.124 408.016L534.922 410.875ZM492.812 418.141H488.812V420.683L491.115 421.762L492.812 418.141ZM492.812 387.281L494.964 383.909L488.812 379.985V387.281H492.812ZM507.734 387.828L510.338 390.865L510.344 390.859L507.734 387.828ZM506.094 371.578L509.577 369.612L509.571 369.601L506.094 371.578ZM509.688 320.641L506.839 317.833L506.839 317.833L509.688 320.641ZM548.281 311.891H544.281V342.281H548.281H552.281V311.891H548.281ZM548.281 342.281L549.572 338.495C547.178 337.679 544.898 337.109 542.969 337.109V341.109V345.109C543.54 345.109 544.801 345.321 546.991 346.067L548.281 342.281ZM542.969 341.109V337.109C539.455 337.109 536.373 338.459 533.927 340.98L536.797 343.766L539.667 346.552C540.658 345.531 541.69 345.109 542.969 345.109V341.109ZM536.797 343.766L533.927 340.98C531.473 343.508 530.219 346.647 530.219 350.172H534.219H538.219C538.219 348.697 538.683 347.565 539.667 346.552L536.797 343.766ZM534.219 350.172H530.219C530.219 353.353 531.567 356.797 533.558 360.281L537.031 358.297L540.504 356.312C538.745 353.234 538.219 351.261 538.219 350.172H534.219ZM537.031 358.297L533.562 360.288L535.984 364.507L539.453 362.516L542.922 360.524L540.5 356.305L537.031 358.297ZM539.453 362.516L535.986 364.51C540.094 371.651 542.016 378.312 542.016 384.547H546.016H550.016C550.016 376.615 547.562 368.588 542.92 360.521L539.453 362.516ZM546.016 384.547H542.016C542.016 393.837 538.751 401.576 532.134 408.006L534.922 410.875L537.71 413.744C545.885 405.799 550.016 395.986 550.016 384.547H546.016ZM534.922 410.875L532.124 408.016C525.556 414.445 517.587 417.656 507.969 417.656V421.656V425.656C519.6 425.656 529.601 421.68 537.72 413.734L534.922 410.875ZM507.969 421.656V417.656C503.498 417.656 499.023 416.634 494.51 414.519L492.812 418.141L491.115 421.762C496.602 424.335 502.231 425.656 507.969 425.656V421.656ZM492.812 418.141H496.812V387.281H492.812H488.812V418.141H492.812ZM492.812 387.281L490.661 390.653C494.01 392.79 497.45 394.172 500.859 394.172V390.172V386.172C499.581 386.172 497.657 385.627 494.964 383.909L492.812 387.281ZM500.859 390.172V394.172C504.423 394.172 507.682 393.141 510.338 390.865L507.734 387.828L505.131 384.791C504.141 385.64 502.817 386.172 500.859 386.172V390.172ZM507.734 387.828L510.344 390.859C513.069 388.513 514.547 385.416 514.547 381.812H510.547H506.547C506.547 383.001 506.15 383.914 505.124 384.797L507.734 387.828ZM510.547 381.812H514.547C514.547 380.115 513.841 378.186 513.101 376.486C512.281 374.601 511.093 372.298 509.577 369.612L506.094 371.578L502.61 373.544C504.063 376.118 505.102 378.152 505.766 379.678C506.51 381.39 506.547 381.948 506.547 381.812H510.547ZM506.094 371.578L509.571 369.601C505.122 361.778 502.984 354.12 502.984 346.578H498.984H494.984C494.984 355.703 497.587 364.711 502.617 373.556L506.094 371.578ZM498.984 346.578H502.984C502.984 337.59 506.129 329.949 512.536 323.448L509.688 320.641L506.839 317.833C498.975 325.811 494.984 335.462 494.984 346.578H498.984ZM509.688 320.641L512.536 323.449C518.997 316.895 526.548 313.703 535.391 313.703V309.703V305.703C524.337 305.703 514.753 309.803 506.839 317.833L509.688 320.641ZM535.391 309.703V313.703C539.312 313.703 543.167 314.355 546.974 315.671L548.281 311.891L549.588 308.11C544.958 306.509 540.219 305.703 535.391 305.703V309.703Z" fill="#6B7280" mask="url(#path-1-outside-1_13_32)"/>
<path d="M414.5 0V43.5H368L350.5 61V172L393 219.5L344.5 220.5L301 169.5V154.5V117.5V38.5L339.5 0H414.5Z" fill="url(#paint0_linear_13_32)"/>
<path d="M211.003 220H343.503L392.003 219L408.003 223C409.606 223.452 410.498 223.877 410.503 225V262.5C410.659 266.721 409.218 268.053 403.503 268H144.003C140.376 268.032 138.931 267.352 139.003 263V226.5C139.044 223.877 140.042 223.08 143.003 222.5L163.003 217L211.003 220Z" fill="url(#paint1_linear_13_32)"/>
<path d="M254.001 154.008V172.008L197.001 180.508V124.008C196.971 118.383 198.234 116.871 202.501 117.008H300.001V154.008H254.001Z" fill="url(#paint2_linear_13_32)"/>
<path d="M254 172L211 220L163 217L204 173L254 172Z" fill="url(#paint3_linear_13_32)"/>
<defs>
<linearGradient id="paint0_linear_13_32" x1="386" y1="8.5" x2="358" y2="217.5" gradientUnits="userSpaceOnUse">
<stop stop-color="#02D0F5"/>
<stop offset="0.432692" stop-color="#01B3F1"/>
<stop offset="1" stop-color="#006FF7"/>
</linearGradient>
<linearGradient id="paint1_linear_13_32" x1="139" y1="242.501" x2="410.514" y2="242.501" gradientUnits="userSpaceOnUse">
<stop stop-color="#01F0F7"/>
<stop offset="1" stop-color="#023FF9"/>
</linearGradient>
<linearGradient id="paint2_linear_13_32" x1="300" y1="128" x2="206" y2="174" gradientUnits="userSpaceOnUse">
<stop stop-color="#ADECFF" stop-opacity="0.29"/>
<stop offset="0.305355" stop-color="#5ADEFB" stop-opacity="0.635479"/>
<stop offset="1" stop-color="#02C6F6"/>
</linearGradient>
<linearGradient id="paint3_linear_13_32" x1="251.5" y1="173" x2="164" y2="217" gradientUnits="userSpaceOnUse">
<stop stop-color="#04B0F5" stop-opacity="0.93"/>
<stop offset="1" stop-color="#01DFF7"/>
</linearGradient>
</defs>
</svg>
